<svg xmlns="http://www.w3.org/2000/svg" viewBox="0 0 54 80" role="img" aria-label="Figma">
  <path fill="#0ACF83" d="M13.5 80C20.956 80 27 73.956 27 66.5C27 59.044 20.956 53 13.5 53H0V80H13.5Z"/>
  <path fill="#A259FF" d="M0 53H13.5C20.956 53 27 46.956 27 39.5C27 32.044 20.956 26 13.5 26H0V53Z"/>
  <path fill="#F24E1E" d="M0 26H13.5C20.956 26 27 19.956 27 12.5C27 5.044 20.956 0 13.5 0H0V26Z"/>
  <path fill="#FF7262" d="M27 26H40.5C47.956 26 54 19.956 54 12.5C54 5.044 47.956 0 40.5 0H27V26Z"/>
  <path fill="#1ABCFE" d="M54 39.5C54 46.956 47.956 53 40.5 53C33.044 53 27 46.956 27 39.5C27 32.044 33.044 26 40.5 26C47.956 26 54 32.044 54 39.5Z"/>
</svg>
