<svg xmlns="http://www.w3.org/2000/svg" viewBox="0 0 24 24" role="img" aria-label="HubSpot">
  <path fill="#FF7A59" d="M18.164 7.93V5.084a2.915 2.915 0 0 0 .811-2.015A2.956 2.956 0 0 0 15.019 0a2.956 2.956 0 0 0-2.956 2.956c0 .788.309 1.503.811 2.015v2.846a6.694 6.694 0 0 0-2.811 1.712l-7.397-5.741a3.287 3.287 0 0 0 .163-1.035A3.307 3.307 0 0 0 0 3.306a3.307 3.307 0 0 0 3.306 3.306c.412 0 .807-.076 1.171-.215l7.359 5.712a6.684 6.684 0 0 0 .746 8.005l-2.928 2.925a2.313 2.313 0 0 0-.672-.104 2.336 2.336 0 0 0 0 4.672 2.336 2.336 0 0 0 2.321-2.128l3.003-3.003a6.659 6.659 0 0 0 4.094 1.419V24a2.915 2.915 0 0 0-.811 2.015A2.956 2.956 0 0 0 18.164 24a2.956 2.956 0 0 0 2.956-2.956 2.916 2.916 0 0 0-.811-2.015v-2.148a6.659 6.659 0 0 0 2.238-1.048l3.081 2.392c-.163.4-.254.836-.254 1.294a3.307 3.307 0 0 0 3.306 3.306 3.307 3.307 0 0 0 3.306-3.306 3.307 3.307 0 0 0-3.306-3.306 3.26 3.26 0 0 0-1.658.449l-3.035-2.356a6.694 6.694 0 0 0 1.483-2.203z"/>
</svg>
